<?xml version="1.0" standalone="no"?>
<!DOCTYPE svg PUBLIC "-//W3C//DTD SVG 20010904//EN"
 "http://www.w3.org/TR/2001/REC-SVG-20010904/DTD/svg10.dtd">
<svg version="1.0" xmlns="http://www.w3.org/2000/svg"
 width="460.000000pt" height="460.000000pt" viewBox="0 0 460.000000 460.000000"
 preserveAspectRatio="xMidYMid meet">
<metadata>
Created by potrace 1.14, written by Peter Selinger 2001-2017
</metadata>
<g transform="translate(0.000000,460.000000) scale(0.100000,-0.100000)"
fill="#000000" stroke="none">
<path d="M2035 4591 c-11 -5 -54 -19 -95 -32 -51 -16 -82 -32 -98 -51 -16 -19
-39 -30 -77 -38 -33 -7 -53 -16 -49 -22 4 -6 -1 -8 -14 -4 -15 5 -22 2 -27
-13 -3 -11 -12 -18 -19 -15 -7 3 -16 -2 -19 -10 -4 -9 -12 -16 -19 -16 -7 0
-21 -17 -30 -38 -10 -20 -31 -45 -48 -54 -16 -9 -38 -30 -48 -47 -10 -17 -36
-44 -58 -60 -82 -63 -94 -76 -105 -108 -8 -26 -15 -32 -29 -28 -13 4 -20 -1
-26 -17 -4 -13 -5 -23 -3 -23 2 -1 -10 -19 -27 -40 -50 -65 -94 -144 -100
-178 -2 -18 -7 -50 -9 -72 -16 -127 -39 -251 -49 -261 -8 -7 -11 -47 -9 -114
1 -57 -2 -111 -7 -120 -6 -11 -5 -21 1 -27 8 -8 8 -13 0 -17 -6 -4 -7 -15 -2
-30 9 -23 24 -120 22 -146 0 -8 -4 -48 -7 -89 -7 -80 9 -209 32 -253 8 -15 14
-45 14 -67 0 -44 32 -187 48 -218 23 -42 38 -46 62 -16 l23 28 -7 -25 c-3 -14
-9 -35 -12 -47 -5 -18 1 -25 33 -41 28 -15 34 -22 22 -27 -20 -8 -17 -49 4
-53 9 -2 18 -13 19 -25 0 -12 2 -29 2 -37 1 -8 10 -14 19 -13 11 0 16 -4 14
-11 -3 -7 4 -18 14 -24 17 -11 19 -9 20 10 1 19 2 18 10 -7 9 -30 16 -228 10
-315 -1 -25 2 -76 7 -113 8 -67 8 -69 -15 -78 -14 -5 -35 -9 -49 -9 -40 0 -64
-33 -64 -87 1 -27 7 -59 15 -73 21 -38 18 -70 -15 -143 -16 -36 -37 -94 -47
-129 -9 -35 -34 -88 -55 -118 -21 -31 -38 -62 -38 -70 0 -7 -9 -24 -21 -36
-19 -20 -19 -23 -3 -38 9 -9 42 -34 73 -55 64 -44 197 -151 187 -151 -4 0 -1
-6 6 -14 7 -8 16 -12 19 -10 3 1 24 -9 47 -25 41 -27 41 -28 25 -52 -9 -13
-10 -18 -3 -11 21 18 41 15 33 -5 -6 -16 -5 -16 10 -5 14 12 20 10 42 -12 14
-14 32 -23 40 -20 9 4 15 0 15 -10 0 -9 7 -16 15 -16 22 0 115 -48 115 -60 0
-5 -4 -12 -10 -15 -13 -8 -13 -25 -1 -25 5 0 13 9 16 21 6 19 8 20 26 3 10 -9
19 -14 19 -10 0 8 83 -35 88 -46 2 -4 10 -4 18 -1 17 6 18 -10 3 -39 -6 -11
-8 -22 -5 -25 3 -3 10 6 15 21 6 14 13 26 15 26 14 0 56 -24 56 -32 0 -5 4 -7
9 -4 5 3 14 -1 21 -9 7 -8 16 -13 20 -10 10 6 137 -38 152 -53 6 -6 17 -8 24
-5 8 3 14 0 14 -7 0 -6 4 -9 8 -6 13 8 82 -13 82 -24 0 -6 14 -10 30 -10 17 0
47 -7 67 -15 25 -11 40 -12 47 -5 15 15 22 12 22 -8 0 -14 -7 -18 -26 -15 -16
2 -13 -1 10 -8 25 -8 35 -8 38 0 11 34 84 -7 95 -54 l5 -20 1 20 c1 16 3 17
10 6 7 -10 29 -15 69 -16 42 -1 70 -8 98 -24 21 -13 50 -25 64 -26 13 -1 26
-8 28 -14 2 -6 28 -11 63 -11 48 0 59 3 59 16 0 11 -6 15 -20 11 -15 -4 -20 0
-20 13 0 10 -6 21 -12 23 -7 3 -2 6 11 6 20 1 22 3 10 17 -9 12 -10 17 -1 23
13 8 -24 45 -45 46 -7 0 -18 9 -26 19 -13 18 -12 21 22 39 124 65 164 180 122
347 -11 46 -30 102 -41 125 -11 23 -20 48 -20 57 0 8 18 53 39 99 53 113 65
165 58 259 -4 67 -10 85 -40 133 -20 30 -40 58 -46 61 -20 13 -12 38 28 90 44
58 83 132 85 161 1 11 7 19 14 18 6 -2 9 4 6 12 -4 8 -1 15 5 15 6 0 11 9 11
20 0 11 3 20 8 20 4 0 25 37 47 82 44 91 45 93 94 127 41 29 81 114 105 220
19 86 19 94 6 86 -12 -8 -13 7 -2 21 5 5 19 36 32 69 13 33 39 90 57 127 49
99 58 158 38 238 -33 132 -34 139 -15 145 9 3 37 25 62 49 53 51 98 157 117
276 16 100 30 140 47 140 16 0 29 42 20 65 -3 8 -16 19 -28 24 -37 16 -160 49
-208 57 l-45 8 40 6 c29 4 39 9 36 20 -2 8 -5 24 -6 35 -2 20 -6 30 -28 89 -6
16 -10 46 -9 66 2 23 -3 42 -13 50 -8 7 -12 16 -9 22 3 5 0 15 -6 23 -7 9 -12
35 -12 60 1 35 -3 47 -18 55 -11 6 -19 14 -19 18 6 38 -3 63 -26 72 -18 7 -25
17 -25 35 0 14 -5 25 -11 25 -5 0 -8 4 -5 9 3 4 -8 19 -24 31 -16 12 -27 27
-24 32 3 5 -3 12 -14 15 -12 3 -25 18 -31 34 -5 16 -15 29 -22 29 -7 0 -9 9
-6 21 8 30 -28 98 -59 109 -13 5 -28 20 -33 32 -8 22 -42 54 -91 88 -33 22
-89 83 -96 102 -3 10 -20 21 -37 26 -18 5 -50 26 -71 46 -26 26 -45 36 -58 32
-11 -2 -35 4 -54 15 -19 10 -43 19 -54 19 -10 0 -22 5 -25 10 -7 12 -600 13
-630 1z m975 -520 c33 -5 67 -24 126 -69 85 -65 91 -71 144 -167 56 -101 80
-153 100 -213 17 -54 50 -191 50 -210 0 -5 -19 10 -43 32 -23 23 -56 47 -72
55 -17 7 -37 17 -45 22 -8 5 -49 25 -90 45 -78 38 -115 62 -119 79 -1 6 -7 15
-13 22 -5 7 -6 18 -2 24 4 7 3 9 -4 5 -6 -3 -13 -2 -17 4 -3 5 0 10 7 10 7 0
-2 8 -19 16 -18 9 -33 20 -33 25 0 15 40 10 46 -6 4 -11 21 -15 58 -15 36 0
47 -3 36 -10 -12 -7 -8 -10 15 -10 17 0 48 -7 70 -15 56 -20 75 -19 75 5 0 11
-7 20 -16 20 -11 0 -14 6 -9 20 5 15 2 20 -10 20 -9 0 -28 9 -42 20 -25 19
-25 20 -4 20 11 0 21 4 21 8 0 15 -43 31 -109 42 -36 5 -67 13 -70 17 -4 5
-19 19 -34 33 -22 19 -30 22 -36 11 -7 -11 -10 -9 -16 8 -3 11 -11 21 -16 21
-5 0 -9 7 -9 15 0 9 -11 20 -25 25 -33 12 -35 44 -2 34 l22 -6 -23 20 -23 21
28 15 c32 17 40 18 103 7z m-143 -71 c9 -16 22 -30 27 -30 5 0 6 -3 3 -7 -8
-7 -67 45 -67 59 0 18 20 6 37 -22z m203 -203 l24 -17 -27 0 c-15 0 -27 -4
-27 -10 0 -5 8 -10 17 -10 14 0 15 -2 4 -12 -10 -11 -15 -9 -27 6 -20 27 -18
36 9 36 20 1 20 2 5 11 -10 5 -18 15 -18 22 0 8 3 9 8 1 4 -5 18 -18 32 -27z
m-655 -156 c8 -14 -13 -24 -33 -16 -14 5 -14 7 -2 15 19 12 27 12 35 1z m-552
-178 c-7 -2 -19 -2 -25 0 -7 3 -2 5 12 5 14 0 19 -2 13 -5z m-208 -63 c-3 -5
-12 -10 -18 -10 -7 0 -6 4 3 10 19 12 23 12 15 0z m535 -26 c0 -14 4 -23 10
-19 15 9 12 -4 -5 -21 -8 -8 -12 -21 -9 -29 4 -9 -1 -18 -11 -21 -19 -8 -69
12 -61 25 3 4 -5 14 -18 21 -31 16 -40 47 -18 60 10 5 38 10 65 10 44 0 47 -2
47 -26z m1098 19 c-10 -2 -28 -2 -40 0 -13 2 -5 4 17 4 22 1 32 -1 23 -4z
m105 -10 c-7 -2 -19 -2 -25 0 -7 3 -2 5 12 5 14 0 19 -2 13 -5z m62 -3 c18 -8
17 -9 -7 -9 -16 -1 -28 4 -28 9 0 12 8 12 35 0z m-1890 -32 c-11 -6 -22 -14
-25 -18 -3 -4 -21 -17 -40 -29 -19 -11 -30 -21 -25 -21 10 -1 -52 -30 -62 -30
-3 0 0 7 7 15 7 8 16 13 20 10 5 -3 10 -1 12 3 5 13 108 82 122 82 6 0 2 -6
-9 -12z m1914 -19 c75 -24 111 -43 126 -65 21 -33 19 -38 -22 -58 -20 -10 -60
-33 -89 -52 -28 -19 -53 -34 -56 -34 -3 0 -8 36 -10 80 -4 62 -10 87 -27 110
l-22 30 32 0 c18 0 49 -5 68 -11z m-409 -39 c0 -5 -9 -10 -21 -10 -11 0 -17 5
-14 10 3 6 13 10 21 10 8 0 14 -4 14 -10z m-137 -57 c-3 -18 -9 -33 -13 -33
-5 0 -4 15 1 32 5 18 9 35 9 37 0 2 2 2 4 0 2 -2 1 -19 -1 -36z m-515 10 c2
-8 -6 -13 -22 -13 -26 0 -40 12 -29 24 11 11 46 2 51 -11z m-444 1 c20 -8 11
-24 -15 -24 -10 0 -19 7 -19 15 0 16 9 19 34 9z m159 -41 c-7 -2 -19 -2 -25 0
-7 3 -2 5 12 5 14 0 19 -2 13 -5z m1165 -15 c-3 -7 -13 -13 -23 -13 -10 0 -20
6 -22 13 -3 7 5 12 22 12 17 0 25 -5 23 -12z m346 -131 c-2 -172 -51 -257
-166 -292 -28 -8 -65 -14 -82 -14 -28 1 -27 2 11 12 45 10 67 42 42 58 -8 5
-10 9 -5 9 6 0 5 5 -2 12 -15 15 -16 42 0 32 11 -7 10 7 -7 138 -3 20 -10 49
-15 63 -13 35 -13 38 5 31 13 -5 33 2 140 49 49 21 60 23 70 13 6 -5 9 -54 9
-111z m-336 91 c-6 -18 -28 -21 -28 -4 0 9 7 16 16 16 9 0 14 -5 12 -12z
m-291 -4 c-3 -3 -12 -4 -19 -1 -8 3 -5 6 6 6 11 1 17 -2 13 -5z m-477 -207 c0
-2 -13 -16 -30 -32 -16 -16 -30 -26 -30 -22 0 3 12 18 27 32 27 24 33 28 33
22z m220 -131 c0 -3 -4 -8 -10 -11 -5 -3 -10 -1 -10 4 0 6 5 11 10 11 6 0 10
-2 10 -4z m-1603 -248 c-3 -8 -6 -5 -6 6 -1 11 2 17 5 13 3 -3 4 -12 1 -19z
m353 -343 c0 -8 -4 -15 -10 -15 -5 0 -10 7 -10 15 0 8 5 15 10 15 6 0 10 -7
10 -15z m1062 -5 c39 -20 63 -19 72 6 9 24 68 17 98 -11 28 -25 28 -25 48 -5
11 11 25 18 32 16 7 -3 25 -7 41 -10 15 -4 27 -13 27 -21 0 -19 14 -19 30 0
16 20 46 19 54 0 4 -12 14 -14 40 -10 30 6 34 4 40 -18 11 -44 -27 -114 -46
-84 -4 7 -27 13 -50 14 -24 2 -70 5 -103 7 -33 2 -68 4 -77 4 -10 0 -48 0 -85
0 -38 0 -94 1 -125 1 -46 0 -60 4 -69 19 -12 19 -14 19 -42 -9 -16 -17 -34
-28 -41 -26 -18 6 -40 80 -32 110 8 33 21 34 67 3 l35 -24 20 29 c10 16 21 29
24 29 3 0 22 -9 42 -20z m-1075 -52 c-3 -8 -6 -5 -6 6 -1 11 2 17 5 13 3 -3 4
-12 1 -19z m848 -8 c10 -11 16 -20 13 -20 -3 0 -13 9 -23 20 -10 11 -16 20
-13 20 3 0 13 -9 23 -20z m-821 -187 c5 -26 4 -43 -2 -43 -13 0 -22 62 -21
140 l2 65 7 -60 c4 -33 10 -79 14 -102z m1133 106 c39 1 43 -1 39 -21 -3 -21
-8 -23 -52 -21 -75 3 -116 13 -111 26 4 13 56 27 71 19 5 -3 29 -4 53 -3z
m704 -16 c-8 -15 -10 -15 -11 -2 0 17 10 32 18 25 2 -3 -1 -13 -7 -23z m-856
7 c8 -13 -25 -13 -45 0 -12 8 -9 10 12 10 15 0 30 -4 33 -10z m278 1 c24 -9
25 -14 8 -34 -18 -23 -48 -21 -61 3 -8 14 -8 20 0 20 6 0 8 5 5 10 -7 11 21
12 48 1z m226 -72 c-39 -11 -46 -10 -51 9 -5 17 -2 18 35 8 35 -10 37 -11 16
-17z m-449 6 c0 -8 -2 -15 -4 -15 -2 0 -6 7 -10 15 -3 8 -1 15 4 15 6 0 10 -7
10 -15z m780 0 c0 -8 -4 -15 -10 -15 -5 0 -7 7 -4 15 4 8 8 15 10 15 2 0 4 -7
4 -15z m-1795 -105 c3 -5 -1 -10 -10 -10 -9 0 -13 5 -10 10 3 6 8 10 10 10 2
0 7 -4 10 -10z m1337 -665 c-2 -14 -6 -25 -8 -25 -2 0 -4 11 -4 25 0 14 4 25
9 25 4 0 6 -11 3 -25z m-82 -1135 c0 -5 -4 -10 -10 -10 -5 0 -10 5 -10 10 0 6
5 10 10 10 6 0 10 -4 10 -10z"/>
<path d="M3170 3680 c0 -5 5 -10 10 -10 6 0 10 5 10 10 0 6 -4 10 -10 10 -5 0
-10 -4 -10 -10z"/>
<path d="M1325 680 c-3 -5 -1 -10 4 -10 6 0 11 5 11 10 0 6 -2 10 -4 10 -3 0
-8 -4 -11 -10z"/>
<path d="M1447 596 c-4 -10 -1 -13 9 -9 15 6 19 23 5 23 -5 0 -11 -7 -14 -14z"/>
<path d="M1439 533 c-13 -16 -12 -17 4 -4 16 13 21 21 13 21 -2 0 -10 -8 -17
-17z"/>
<path d="M1555 490 c-3 -5 -1 -10 4 -10 6 0 11 5 11 10 0 6 -2 10 -4 10 -3 0
-8 -4 -11 -10z"/>
<path d="M1620 449 c-12 -16 -21 -32 -18 -34 2 -2 13 12 26 31 28 42 21 45 -8
3z"/>
<path d="M1530 459 c0 -5 5 -7 10 -4 6 3 10 8 10 11 0 2 -4 4 -10 4 -5 0 -10
-5 -10 -11z"/>
<path d="M1695 424 c-23 -36 -15 -37 13 -3 13 16 19 29 14 29 -5 0 -17 -12
-27 -26z"/>
<path d="M1937 305 c-5 -31 13 -28 24 3 6 16 5 22 -5 22 -8 0 -16 -11 -19 -25z"/>
<path d="M1967 266 c-4 -10 -5 -21 -2 -24 9 -9 17 6 13 25 -3 17 -4 17 -11 -1z"/>
<path d="M2041 234 c0 -11 3 -14 6 -6 3 7 2 16 -1 19 -3 4 -6 -2 -5 -13z"/>
<path d="M2540 110 c0 -11 2 -20 4 -20 2 0 6 9 9 20 3 11 1 20 -4 20 -5 0 -9
-9 -9 -20z"/>
<path d="M3030 50 c-8 -5 -12 -12 -9 -15 8 -8 39 5 39 16 0 11 -11 11 -30 -1z"/>
<path d="M2988 43 c7 -3 16 -2 19 1 4 3 -2 6 -13 5 -11 0 -14 -3 -6 -6z"/>
</g>
</svg>
